<?xml version="1.0" standalone="no"?><!DOCTYPE svg PUBLIC "-//W3C//DTD SVG 1.1//EN" "http://www.w3.org/Graphics/SVG/1.1/DTD/svg11.dtd"><svg t="1539605339457" class="icon" style="" viewBox="0 0 1024 1024" version="1.1" xmlns="http://www.w3.org/2000/svg" p-id="3142" xmlns:xlink="http://www.w3.org/1999/xlink" width="64" height="64"><defs><style type="text/css"></style></defs><path d="M442.558 690.798c-17.497 0-31.713-14.215-31.713-30.62v-27.34c0-12.031-2.188-24.060-6.561-34.994l-4.373-10.937-4.373 12.031c-4.373 10.937-5.468 21.87-5.468 32.807v29.527c0 17.497-14.215 30.62-31.713 30.62-10.937 0-21.87-5.468-27.34-15.309l-10.937-17.497c-18.59-30.62-30.62-65.614-33.901-101.701-1.093-12.031-5.468-22.966-10.937-33.901l-16.403-26.246c-12.031-19.683-18.59-42.649-18.59-65.614s5.468-44.836 16.403-62.333c15.309-25.152 43.743-40.462 75.456-40.462 5.468 0 9.843 0 15.309 1.093l53.586 8.75 53.586-8.75c5.468-1.093 9.843-1.093 15.309-1.093 31.713 0 60.146 15.309 75.456 40.462 10.937 17.497 16.403 39.369 16.403 62.333s-6.561 45.929-18.59 65.614l-16.403 26.246c-6.561 10.937-9.843 21.87-10.937 33.901-3.28 36.086-15.309 71.083-33.901 101.701l-10.937 17.497c-6.561 8.75-17.497 14.215-28.433 14.215zM398.815 554.102c13.123 0 26.246 8.75 30.62 20.777l4.373 10.937c6.561 15.309 8.75 30.62 8.75 47.023v24.060l8.75-15.309c16.403-26.246 26.246-56.865 29.527-87.486 1.093-16.403 6.561-32.807 16.403-48.116l16.403-26.246c8.75-14.215 14.215-31.713 14.215-48.116 0-17.497-4.373-32.807-12.031-44.836-8.75-15.309-27.34-24.060-47.023-24.060-3.28 0-6.561 0-9.843 1.093l-56.865 9.843h-5.468l-56.865-9.843c-3.28 0-6.561-1.093-9.843-1.093-19.683 0-38.274 9.843-47.023 24.060-7.657 13.123-12.031 28.433-12.031 44.836s4.373 33.901 14.215 48.116l16.403 26.246c8.75 14.215 14.215 31.713 16.403 48.116 3.28 30.62 13.123 61.241 29.527 87.486l8.75 15.309v-25.152c0-15.309 2.188-29.527 7.657-43.743l4.373-12.031c4.373-13.123 17.497-21.87 30.62-21.87z" fill="#5FA0E2" p-id="3143"></path><path d="M398.815 526.763c22.966 0 44.836 13.123 54.679 33.901 0-3.28 1.093-6.561 1.093-8.75 2.188-20.777 8.75-41.555 19.683-59.053l16.403-26.246c6.561-9.843 9.843-21.87 9.843-33.901s-2.188-22.966-7.657-30.62c-4.373-6.561-14.215-10.937-24.060-10.937h-5.468l-56.865 9.843c-2.188 0-4.373 1.093-7.657 1.093s-4.373 0-7.657-1.093l-56.865-9.843h-5.468c-10.937 0-19.683 4.373-24.060 10.937-5.468 8.75-7.657 18.59-7.657 30.62 0 12.031 3.28 22.966 9.843 33.901l16.403 26.246c10.937 18.59 18.59 39.369 19.683 59.053 0 2.188 0 5.468 1.093 7.657 12.031-20.777 32.807-32.807 54.679-32.807z" fill="#93CBF9" p-id="3144"></path><path d="M510.361 967.471c-8.75 0-16.403-7.657-16.403-16.403v-106.076c0-59.053 48.116-108.263 108.263-109.358 59.053-1.093 136.698-3.28 190.279-5.468 8.75 0 17.497-4.373 22.966-10.937s8.75-15.309 7.657-25.152c-2.188-17.497-6.561-31.713-10.937-40.462-5.468-9.843-7.657-20.777-7.657-33.901 0-20.777 12.031-39.369 29.527-49.21v-1.093c1.093-6.561-3.28-14.215-9.843-17.497l-76.549-38.274c-5.468-3.28-8.75-8.75-8.75-15.309s4.373-12.031 9.843-14.215c34.994-14.215 75.456-32.807 89.671-42.649-7.657-17.497-18.59-45.929-19.683-47.023-1.093-2.188-1.093-4.373-1.093-5.468 0-8.75 2.188-15.309 40.462-37.182 26.246-15.309 40.462-31.713 40.462-47.023v-3.28c-1.093-6.561-5.468-13.123-12.031-16.403-18.59-10.937-37.182-21.87-55.773-33.901-43.743-29.527-69.988-47.023-88.579-76.549-17.497-28.433-26.246-62.333-25.152-100.608 0-8.75 7.657-16.403 16.403-16.403s16.403 7.657 16.403 16.403c-1.093 31.713 5.468 60.146 19.683 82.018 14.215 22.966 33.901 37.182 78.736 66.707 17.497 12.031 34.994 22.966 53.586 32.807 15.309 8.75 26.246 22.966 28.433 39.369 0 3.28 1.093 5.468 1.093 7.657 0 19.683-8.75 49.21-56.865 76.549-7.657 4.373-16.403 9.843-21.87 13.123 5.468 13.123 14.215 36.086 18.59 43.743 2.188 4.373 2.188 9.843 0 15.309s-6.561 17.497-78.736 49.21l44.836 21.87c19.683 9.843 31.713 31.713 27.34 52.491-2.188 10.937-7.657 19.683-17.497 25.152-7.657 4.373-13.123 10.937-13.123 19.683 0 7.657 1.093 13.123 4.373 18.59 6.561 12.031 10.937 29.527 14.215 52.491 2.188 17.497-3.28 36.086-15.309 50.305-12.031 14.215-28.433 21.87-47.023 22.966-54.679 2.188-131.229 5.468-191.372 5.468-41.555 1.093-75.456 34.994-75.456 76.549v106.076c3.28 7.657-4.373 15.309-13.123 15.309zM227.124 563.945c-4.373 0-8.75-2.188-12.031-5.468-13.123-13.123-24.060-29.527-31.713-47.023-8.75-19.683-14.215-40.462-15.309-60.146 0-8.75 6.561-16.403 15.309-17.497 8.75-1.093 16.403 6.561 17.497 15.309 1.093 16.403 5.468 32.807 13.123 48.116 6.561 14.215 15.309 27.34 25.152 38.274 6.561 6.561 6.561 16.403 0 22.966-3.28 3.28-7.657 5.468-12.031 5.468zM207.442 637.213c-2.188 0-4.373 0-6.561-1.093-36.086-15.309-68.894-48.116-88.579-91.859s-24.060-89.671-12.031-126.853c3.28-8.75 12.031-13.123 20.777-10.937 8.75 3.28 13.123 12.031 10.937 20.777-9.843 29.527-5.468 67.801 10.937 102.796 16.403 36.086 42.649 63.425 71.083 75.456 8.75 3.28 12.031 13.123 8.75 21.87-2.188 6.561-8.75 9.843-15.309 9.843z" fill="#5FA0E2" p-id="3145"></path><path d="M567.226 563.945c-4.373 0-8.75-1.093-10.937-4.373-6.561-6.561-6.561-16.403 0-22.966 9.843-10.937 18.59-24.060 25.152-38.274 7.657-16.403 12.031-32.807 13.123-48.116 0-8.75 7.657-15.309 17.497-15.309 8.75 0 16.403 8.75 15.309 17.497-1.093 19.683-6.561 40.462-15.309 60.146-8.75 17.497-18.59 33.901-31.713 47.023-4.373 2.188-8.75 4.373-13.123 4.373zM586.91 637.213c-6.561 0-13.123-4.373-15.309-9.843-3.28-8.75 1.093-17.497 8.75-21.87 28.433-12.031 54.679-39.369 71.083-75.456 16.403-34.994 20.777-74.363 10.937-102.796-3.28-8.75 2.188-17.497 10.937-20.777s17.497 2.188 20.777 10.937c12.031 37.182 7.657 83.111-12.031 126.853s-52.491 76.549-88.579 91.859c-2.188 1.093-4.373 1.093-6.561 1.093z" fill="#5FA0E2" p-id="3146"></path></svg>